<svg width="150" height="150" viewBox="0 0 150 150" fill="none" xmlns="http://www.w3.org/2000/svg">
<g clip-path="url(#clip0)">
<path d="M50.0156 105.266C45.5469 109.938 44.3281 115.625 46.7656 117.047C49 118.266 54.2812 116.844 58.1406 112.781C59.3382 111.424 60.3618 109.923 61.1875 108.313C61.3906 107.906 61.3906 107.703 61.5937 107.297C61.7969 106.891 61.7969 106.688 62 106.281C62.985 103.115 63.0554 99.7355 62.2031 96.5312C62 96.7344 61.7969 96.7344 61.5937 96.9375C57.2959 99.0468 53.3823 101.862 50.0156 105.266Z" fill="#CD679A"/>
<path d="M75 10C62.1442 10 49.5772 13.8122 38.888 20.9545C28.1988 28.0968 19.8676 38.2484 14.9479 50.1256C10.0282 62.0028 8.74095 75.0721 11.249 87.6809C13.757 100.29 19.9477 111.872 29.0381 120.962C38.1285 130.052 49.7104 136.243 62.3192 138.751C74.9279 141.259 87.9973 139.972 99.8745 135.052C111.752 130.133 121.903 121.801 129.046 111.112C136.188 100.423 140 87.8558 140 75C140.009 66.4616 138.334 58.0051 135.071 50.1149C131.807 42.2246 127.02 35.0554 120.982 29.0178C114.945 22.9802 107.775 18.1927 99.8852 14.9294C91.9949 11.666 83.5385 9.99095 75 10V10ZM96.125 67.6875C84.9532 71.9532 75.6094 71.3438 71.75 70.125C68.5636 69.2342 65.8607 67.1157 64.2344 64.2344C64.0313 63.625 63.625 62.6094 64.2344 62.2032C64.6407 62 64.8438 62 65.8594 63.2188C66.875 64.4375 71.1407 67.4844 79.0625 66.4688C99.9844 64.2344 112.375 47.9844 108.516 39.25C105.672 33.1563 89.625 30.3125 69.7188 40.4688C45.1407 52.6563 43.9219 62.8125 43.7188 66.4688C43.1094 77.0313 56.7188 82.5157 64.0313 90.2344C64.2344 90.4375 64.4375 90.6407 64.4375 90.8438C67.7351 89.8753 71.157 89.3963 74.5938 89.4219C86.375 89.2188 93.0782 96.9375 92.875 104.047C92.7524 105.85 92.0845 107.573 90.9599 108.988C89.8353 110.403 88.3071 111.442 86.5782 111.969C85.9688 112.172 85.5625 112.172 85.3594 111.563C85.3594 111.156 85.5625 110.953 86.375 110.547C87.3369 110.043 88.1681 109.321 88.8028 108.44C89.4374 107.558 89.858 106.541 90.0313 105.469C90.4375 102.422 88.2032 95.3125 76.8282 94.0938C73.5028 93.6378 70.12 93.8449 66.875 94.7032C68.1154 97.9592 68.5597 101.465 68.1711 104.927C67.7824 108.39 66.572 111.709 64.6407 114.609C62.4023 118.231 59.0716 121.048 55.1288 122.654C51.1861 124.261 46.835 124.573 42.7032 123.547C39.8594 122.734 35.7969 117.047 39.4532 109.125C42.9063 101.609 57.3282 94.2969 59.3594 93.2813C52.6563 87.3907 36.2032 79.6719 33.9688 67.6875C33.3594 64.2344 34.9844 56.1094 44.9375 46.7657C53.2657 38.8438 65.0469 32.9532 75.8125 29.0938C93.8907 22.5938 112.984 26.4532 116.031 38.0313C118.672 49.2032 108.719 62.8125 96.125 67.6875V67.6875Z" fill="#CD679A"/>
</g>
<defs>
<clipPath id="clip0">
<rect width="130" height="130" fill="white" transform="translate(10 10)"/>
</clipPath>
</defs>
</svg>
